<?xml version="1.0" encoding="UTF-8"?>
<svg width="87px" height="112px" viewBox="0 0 87 112" version="1.1" xmlns="http://www.w3.org/2000/svg" xmlns:xlink="http://www.w3.org/1999/xlink">
    <!-- Generator: Sketch 43.1 (39012) - http://www.bohemiancoding.com/sketch -->
    <title>Group 13</title>
    <desc>Created with Sketch.</desc>
    <defs></defs>
    <g id="Page-1" stroke="none" stroke-width="1" fill="none" fill-rule="evenodd">
        <g id="Mobile-Portrait" transform="translate(-149.000000, -245.000000)">
            <g id="Group-14" transform="translate(149.000000, 245.000000)">
                <g id="Group-13">
                    <rect id="Rectangle-20" fill="#FFFFFF" x="0" y="0" width="87" height="112" rx="10"></rect>
                    <path d="M0,51 L87,51 L87,101.995397 C87,107.520787 82.5208231,112 76.9987731,112 L10.0012269,112 C4.47770181,112 0,107.514524 0,101.995397 L0,51 Z" id="Rectangle-22" fill="#E5B7BC"></path>
                    <path d="M33,52.4999611 C30.521519,55.1015662 29,58.6230982 29,62.5 C29,70.5081289 35.4918711,77 43.5,77 C51.5081289,77 58,70.5081289 58,62.5 C58,58.6230982 56.478481,55.1015662 54,52.4999611 L54,20.5044844 C54,14.7009 49.2989899,10 43.5,10 C37.6997351,10 33,14.7030179 33,20.5044844 L33,52.4999611 Z" id="Combined-Shape" stroke="#D8D8D8" fill="#FFFFFF"></path>
                    <path d="M40,54.7524406 C37.0514749,56.0876743 35,59.0580044 35,62.5079291 C35,67.2067286 38.8055796,71.0158582 43.5,71.0158582 C48.1944204,71.0158582 52,67.2067286 52,62.5079291 C52,59.0580044 49.9485251,56.0876743 47,54.7524406 L47,30.4988237 C47,28.5702056 45.4329966,27 43.5,27 C41.5709366,27 40,28.5664767 40,30.4988237 L40,54.7524406 Z" id="Combined-Shape" fill="#BF4C59"></path>
                </g>
            </g>
        </g>
    </g>
</svg>